<svg width="36" height="36" viewBox="0 0 36 36" fill="none" xmlns="http://www.w3.org/2000/svg">
<circle cx="18" cy="18" r="18" fill="#EBF2F3"/>
<mask id="mask0_83_3237" style="mask-type:alpha" maskUnits="userSpaceOnUse" x="6" y="4" width="24" height="24">
<rect x="6" y="4" width="24" height="24" fill="#D9D9D9"/>
</mask>
<g mask="url(#mask0_83_3237)">
<path d="M8 28.0003V25.0003H28V28.0003H8ZM12 20.4138H13.2365L21.5365 12.129L20.9078 11.4908L20.2848 10.8773L12 19.1773V20.4138ZM10.5 21.9138V18.5388L21.7098 7.34455C21.8546 7.19971 22.019 7.09013 22.203 7.0158C22.3868 6.94146 22.5782 6.9043 22.777 6.9043C22.976 6.9043 23.1687 6.94146 23.355 7.0158C23.5413 7.09013 23.7121 7.20488 23.8673 7.36005L25.0693 8.5773C25.2244 8.72213 25.3366 8.88805 25.4058 9.07505C25.4749 9.26188 25.5095 9.45505 25.5095 9.65455C25.5095 9.84155 25.4744 10.0275 25.4042 10.2123C25.3341 10.3973 25.2224 10.5664 25.0693 10.7195L13.875 21.9138H10.5ZM21.5365 12.129L20.9078 11.4908L20.2848 10.8773L21.5365 12.129Z" fill="#357984"/>
</g>
</svg>
