<svg width="24" height="24" viewBox="0 0 24 24" fill="none" xmlns="http://www.w3.org/2000/svg">
<mask id="mask0_110_1890" style="mask-type:alpha" maskUnits="userSpaceOnUse" x="0" y="0" width="24" height="24">
<rect width="24" height="24" fill="#D9D9D9"/>
</mask>
<g mask="url(#mask0_110_1890)">
<path d="M9.075 16.25L12 14.475L14.925 16.25L14.15 12.925L16.75 10.675L13.325 10.4L12 7.24995L10.675 10.4L7.25 10.675L9.85 12.925L9.075 16.25ZM12 23.3L8.65 20H4V15.35L0.699997 12L4 8.64995V3.99995H8.65L12 0.699951L15.35 3.99995H20V8.64995L23.3 12L20 15.35V20H15.35L12 23.3ZM12 20.5L14.5 18H18V14.5L20.5 12L18 9.49995V5.99995H14.5L12 3.49995L9.5 5.99995H6V9.49995L3.5 12L6 14.5V18H9.5L12 20.5Z" fill="#357984"/>
</g>
</svg>
