<svg width="24" height="24" viewBox="0 0 24 24" fill="none" xmlns="http://www.w3.org/2000/svg">
<path fill-rule="evenodd" clip-rule="evenodd" d="M7.75 17.4999C7.75 17.0857 7.41421 16.7499 7 16.7499H2C1.58579 16.7499 1.25 17.0857 1.25 17.4999C1.25 17.9141 1.58579 18.2499 2 18.2499H7C7.41421 18.2499 7.75 17.9141 7.75 17.4999Z" fill="#0A0A0A"/>
<path fill-rule="evenodd" clip-rule="evenodd" d="M16.25 6.49988C16.25 6.08567 16.5858 5.74988 17 5.74988H22C22.4142 5.74988 22.75 6.08567 22.75 6.49988C22.75 6.91409 22.4142 7.24988 22 7.24988H17C16.5858 7.24988 16.25 6.91409 16.25 6.49988Z" fill="#0A0A0A"/>
<path fill-rule="evenodd" clip-rule="evenodd" d="M22.75 17.4999C22.75 17.0857 22.4142 16.7499 22 16.7499H13C12.5858 16.7499 12.25 17.0857 12.25 17.4999C12.25 17.9141 12.5858 18.2499 13 18.2499H22C22.4142 18.2499 22.75 17.9141 22.75 17.4999Z" fill="#0A0A0A"/>
<path fill-rule="evenodd" clip-rule="evenodd" d="M1.25 6.49988C1.25 6.08567 1.58579 5.74988 2 5.74988H11C11.4142 5.74988 11.75 6.08567 11.75 6.49988C11.75 6.91409 11.4142 7.24988 11 7.24988H2C1.58579 7.24988 1.25 6.91409 1.25 6.49988Z" fill="#0A0A0A"/>
<path fill-rule="evenodd" clip-rule="evenodd" d="M10 15.1497C11.2426 15.1497 12.25 16.1571 12.25 17.3997C12.25 18.6423 11.2426 19.6497 10 19.6497C8.75736 19.6497 7.75 18.6423 7.75 17.3997C7.75 16.1571 8.75736 15.1497 10 15.1497ZM13.75 17.3997C13.75 15.3286 12.0711 13.6497 10 13.6497C7.92893 13.6497 6.25 15.3286 6.25 17.3997C6.25 19.4708 7.92893 21.1497 10 21.1497C12.0711 21.1497 13.75 19.4708 13.75 17.3997Z" fill="#0A0A0A"/>
<path fill-rule="evenodd" clip-rule="evenodd" d="M14 4.14966C12.7574 4.14966 11.75 5.15702 11.75 6.39966C11.75 7.6423 12.7574 8.64966 14 8.64966C15.2426 8.64966 16.25 7.6423 16.25 6.39966C16.25 5.15702 15.2426 4.14966 14 4.14966ZM10.25 6.39966C10.25 4.32859 11.9289 2.64966 14 2.64966C16.0711 2.64966 17.75 4.32859 17.75 6.39966C17.75 8.47073 16.0711 10.1497 14 10.1497C11.9289 10.1497 10.25 8.47073 10.25 6.39966Z" fill="#0A0A0A"/>
</svg>
